#!OML:ASF F:\twosubjects\two\Thursday\Session 1\Rory.ASF
:FULLY-SPECIFIED
:DEGREES
228
root 5.85486 18.4901 -7.26903 7.28782 50.3839 -2.55152
lowerback 2.92186 -0.446916 -5.69099
upperback 4.64298 -0.300562 -6.79764
thorax 3.18194 -0.130255 -3.86577
lowerneck 1.85937 -11.446 -15.1248
upperneck 32.5594 -13.0959 -2.92509
head 11.3151 -7.842 0.20297
rclavicle 1.54257e-013 -3.81667e-014
rhumerus -23.7224 -14.866 -47.3672
rradius 117.059
rwrist 8.34555
rhand -11.2311 4.75361
rfingers 7.12502
rthumb 14.7979 -24.6981
lclavicle 1.54257e-013 -3.81667e-014
lhumerus -38.3116 20.7037 61.3502
lradius 25.5517
lwrist -23.4158
lhand -7.71051 27.7412
lfingers 7.12502
lthumb 18.1874 56.9109
rfemur -11.1609 3.66719 17.5794
rtibia 19.0753
rfoot -18.3635 -27.2227
rtoes 11.156
lfemur -15.9334 -1.88106 -14.3145
ltibia 19.1901
lfoot -13.6994 19.8958
ltoes 12.1898
229
root 5.91018 18.4971 -7.30133 7.56103 50.5299 -2.24484
lowerback 3.01915 0.992683 -4.72878
upperback 4.71452 1.6947 -8.00532
thorax 3.32981 0.943393 -5.69956
lowerneck 2.80004 -13.0588 -10.9727
upperneck 32.9507 -15.7176 -3.24481
head 10.9551 -8.63258 -0.709376
rclavicle -8.74653e-015 3.49861e-014
rhumerus -28.5901 -19.101 -45.477
rradius 118.021
rwrist 7.04683
rhand -9.75934 6.08722
rfingers 7.12502
rthumb 16.2154 -23.2546
lclavicle -8.74653e-015 3.49861e-014
lhumerus -35.2934 15.5274 62.184
lradius 25.1525
lwrist -22.824
lhand -10.7575 32.4552
lfingers 7.12502
lthumb 15.2541 61.8728
rfemur -11.4174 3.82641 17.0893
rtibia 19.5859
rfoot -19.9251 -26.9538
rtoes 15.894
lfemur -15.8101 -1.31043 -14.8
ltibia 18.8373
lfoot -13.4225 19.265
ltoes 13.3257
230
root 5.96452 18.4936 -7.33414 8.16432 50.6364 -1.41688
lowerback 2.85582 -0.704054 -6.31252
upperback 4.64199 -0.643361 -6.64929
thorax 3.22225 -0.324827 -3.36384
lowerneck 1.4609 -11.3246 -14.8027
upperneck 33.1032 -12.6659 -3.56538
head 11.5066 -7.68049 -0.0666525
rclavicle 5.96354e-014 1.59028e-014
rhumerus -23.6887 -15.5104 -45.2856
rradius 117.493
rwrist 5.32097
rhand -8.11152 7.57857
rfingers 7.12502
rthumb 17.8015 -21.6266
lclavicle 5.96354e-014 1.59028e-014
lhumerus -38.7222 21.1014 61.5813
lradius 25.8209
lwrist -22.915
lhand -8.78698 29.7184
lfingers 7.12502
lthumb 17.1515 58.9814
rfemur -11.5499 4.09839 16.2216
rtibia 19.9949
rfoot -21.7301 -26.4184
rtoes 22.3292
lfemur -15.6832 -0.605575 -15.6763
ltibia 18.6008
lfoot -12.7931 18.6324
ltoes 11.7383
231
root 6.02244 18.4976 -7.36422 7.95737 50.6931 -1.327
lowerback 3.05696 -0.740919 -6.35863
upperback 4.67876 -0.719112 -6.47345
thorax 3.14819 -0.368329 -3.1507
lowerneck 1.75988 -11.1532 -15.1336
upperneck 33.0017 -12.5331 -3.25548
head 11.4552 -7.62271 0.130927
rclavicle 2.3059e-014 -5.40694e-014
rhumerus -23.4877 -16.0571 -43.9679
rradius 117.201
rwrist 3.49207
rhand -6.79307 7.95969
rfingers 7.12502
rthumb 19.0698 -21.1254
lclavicle 2.3059e-014 -5.40694e-014
lhumerus -38.9287 20.7718 61.902
lradius 26.0098
lwrist -22.256
lhand -11.0787 33.2698
lfingers 7.12502
lthumb 14.9447 62.7106
rfemur -11.2892 4.33962 15.9308
rtibia 20.3595
rfoot -21.5997 -26.5397
rtoes 20.6893
lfemur -15.2689 0.0835634 -16.0371
ltibia 18.4454
lfoot -12.5779 17.9695
ltoes 10.994
232
root 6.09089 18.5029 -7.39694 7.40873 50.8552 -1.75529
lowerback 3.16681 -0.784504 -5.85081
upperback 4.6531 -0.798507 -6.31378
thorax 3.04774 -0.396942 -3.26219
lowerneck 2.06706 -11.024 -15.3911
upperneck 33.1084 -12.475 -2.89165
head 11.4869 -7.5926 0.320394
rclavicle -5.32743e-014 -8.5875e-014
rhumerus -23.5165 -16.8357 -42.6717
rradius 116.621
rwrist 1.87468
rhand -6.30188 9.38605
rfingers 7.12502
rthumb 19.5421 -19.6518
lclavicle -5.32743e-014 -8.5875e-014
lhumerus -39.2981 20.2392 62.0606
lradius 26.316
lwrist -21.7943
lhand -6.71267 26.9274
lfingers 7.12502
lthumb 19.1471 56.0049
rfemur -11.0632 4.18773 16.029
rtibia 20.8046
rfoot -19.963 -27.111
rtoes 13.3376
lfemur -14.8428 0.50994 -16.0433
ltibia 18.2074
lfoot -12.5464 17.5102
ltoes 11.0535
233
root 6.15062 18.5025 -7.4265 7.39959 50.6554 -1.78026
lowerback 3.04583 -0.714444 -5.72809
upperback 4.58583 -0.701196 -6.30646
thorax 3.04415 -0.345686 -3.32357
lowerneck 2.00899 -11.0299 -15.0961
upperneck 33.376 -12.4734 -2.94114
head 11.5723 -7.57027 0.248381
rclavicle 1.24837e-013 2.22639e-014
rhumerus -23.6444 -17.7089 -41.5718
rradius 115.958
rwrist 0.915592
rhand -6.61997 12.5926
rfingers 7.12502
rthumb 19.2363 -16.476
lclavicle 1.24837e-013 2.22639e-014
lhumerus -39.4946 19.6894 62.1555
lradius 26.6994
lwrist -21.2302
lhand -6.60544 27.2614
lfingers 7.12502
lthumb 19.2503 56.3286
rfemur -11.262 4.20283 15.7719
rtibia 21.2966
rfoot -19.1172 -27.1446
rtoes 10.5571
lfemur -14.5762 0.71918 -16.2561
ltibia 17.9316
lfoot -12.8263 17.268
ltoes 14.2554
234
root 6.2072 18.5119 -7.45653 7.5888 50.7619 -1.4793
lowerback 3.021 -0.752636 -5.88794
upperback 4.58636 -0.751722 -6.26232
thorax 3.06162 -0.376955 -3.18854
lowerneck 2.2048 -11.1122 -14.7958
upperneck 33.2673 -12.6038 -3.11611
head 11.4564 -7.61011 0.146
rclavicle -5.24792e-014 7.95139e-014
rhumerus -23.4536 -17.9769 -40.6713
rradius 116.972
rwrist -1.89406
rhand -3.61801 3.06307
rfingers 7.12502
rthumb 22.1207 -25.6915
lclavicle -5.24792e-014 7.95139e-014
lhumerus -39.5556 19.4981 62.2976
lradius 26.937
lwrist -20.755
lhand -10.6594 33.1337
lfingers 7.12502
lthumb 15.3486 62.544
rfemur -11.3742 4.4978 15.3285
rtibia 21.7565
rfoot -19.7164 -27.2054
rtoes 13.6559
lfemur -14.3411 0.588306 -16.6292
ltibia 17.7173
lfoot -12.9792 17.0234
ltoes 17.1818
235
root 6.26142 18.5241 -7.48763 7.3468 51.0113 -1.75552
lowerback 2.92077 -0.853024 -5.64194
upperback 4.64178 -0.880641 -6.03431
thorax 3.17062 -0.442537 -3.08899
lowerneck 2.52929 -11.1494 -14.931
upperneck 33.0451 -12.7221 -3.06275
head 11.3312 -7.66776 0.199931
rclavicle -1.33583e-013 -6.99722e-014
rhumerus -22.9906 -18.7857 -39.3948
rradius 116.098
rwrist -4.50358
rhand -2.98828 3.27869
rfingers 7.12502
rthumb 22.7252 -25.403
lclavicle -1.33583e-013 -6.99722e-014
lhumerus -39.6818 19.5532 62.5626
lradius 27.2348
lwrist -20.5695
lhand -7.63756 30.2091
lfingers 7.12502
lthumb 18.2576 59.3722
rfemur -11.4703 4.83195 15.3119
rtibia 22.1521
rfoot -20.8044 -27.1843
rtoes 17.7885
lfemur -14.2164 0.754194 -16.6458
ltibia 17.5606
lfoot -12.721 16.5743
ltoes 17.2807
236
root 6.31468 18.5299 -7.52409 7.17569 51.2617 -1.98868
lowerback 2.79994 -0.963294 -5.3274
upperback 4.68834 -1.01979 -5.86686
thorax 3.27951 -0.508999 -3.09213
lowerneck 2.67711 -11.1251 -15.1626
upperneck 33.002 -12.8045 -2.70044
head 11.3395 -7.69581 0.363218
rclavicle -5.56597e-014 6.36111e-015
rhumerus -22.593 -19.5544 -38.2267
rradius 115.11
rwrist -7.00962
rhand -3.22438 3.87557
rfingers 7.12502
rthumb 22.4986 -24.8338
lclavicle -5.56597e-014 6.36111e-015
lhumerus -39.7048 19.2071 62.9694
lradius 27.5833
lwrist -20.2649
lhand -8.27892 30.2607
lfingers 7.12502
lthumb 17.6405 59.4805
rfemur -11.5818 4.41306 15.2707
rtibia 22.4764
rfoot -21.2751 -26.627
rtoes 19.8694
lfemur -14.1953 0.812888 -16.7056
ltibia 17.4923
lfoot -12.5946 16.1701
ltoes 17.3446
237
root 6.36933 18.5291 -7.55951 7.33936 51.4519 -1.64348
lowerback 2.82653 -1.02149 -5.42447
upperback 4.7104 -1.09586 -5.88758
thorax 3.28895 -0.549005 -3.05995
lowerneck 2.41571 -11.3089 -15.0052
upperneck 33.7814 -12.9904 -2.72949
head 11.703 -7.78366 0.258607
rclavicle 5.56597e-014 1.90833e-014
rhumerus -22.4435 -20.2936 -37.2994
rradius 114.287
rwrist -9.42969
rhand -3.65631 4.03673
rfingers 7.12502
rthumb 22.084 -24.7222
lclavicle 5.56597e-014 1.90833e-014
lhumerus -39.5019 18.5726 63.2768
lradius 27.7546
lwrist -19.668
lhand -8.97602 29.9782
lfingers 7.12502
lthumb 16.9695 59.2569
rfemur -11.5627 3.84574 14.8117
rtibia 22.7798
rfoot -20.5186 -26.3363
rtoes 18.2264
lfemur -14.0619 0.502863 -17.1405
ltibia 17.5414
lfoot -12.925 16.2602
ltoes 16.7221
